<?xml version="1.0" encoding="utf-8"?>
<!-- Generator: Adobe Illustrator 24.3.0, SVG Export Plug-In . SVG Version: 6.00 Build 0)  -->
<svg version="1.1" xmlns="http://www.w3.org/2000/svg" xmlns:xlink="http://www.w3.org/1999/xlink" x="0px" y="0px"
	 viewBox="0 0 987.3 283.4" style="enable-background:new 0 0 987.3 283.4;" xml:space="preserve">
<style type="text/css">
	.st0{fill:#FFFFFF;}
	.st1{fill:#4C86F9;}
	.st2{fill:#E1432E;}
	.st3{fill:#49A84C;}
	.st4{fill:#F6BC00;}
	.st5{fill:#FDFCFC;}
	.st6{enable-background:new    ;}
</style>
<g id="Layer_1">
	<g id="Layer_1_2_">
		<g id="Layer_1_1_">
			<g>
				<g>
					<circle class="st0" cx="143" cy="142.6" r="135"/>
					<path class="st1" d="M143,12.6c71.8,0,130,58.2,130,130s-58.2,130-130,130s-130-58.2-130-130S71.2,12.6,143,12.6 M143,2.6
						c-37.4,0-72.6,14.6-99,41s-41,61.6-41,99s14.6,72.6,41,99s61.6,41,99,41s72.6-14.6,99-41s41-61.6,41-99s-14.6-72.6-41-99
						C215.5,17.1,180.4,2.6,143,2.6L143,2.6z"/>
				</g>
				<g>
					<path class="st2" d="M140.1,31.1c0-4.6-1.5-5-5.5-4.8c-56.2,3.1-104.2,51-107.7,107.4c-0.3,4.8,1.3,5.7,5.7,5.7
						c16.7-0.2,33.4-0.1,50.1-0.1c17.1,0,34.3-0.1,51.4,0.1c4.2,0.1,6.1-0.6,6-5.5C139.9,99.6,139.9,65.3,140.1,31.1z M43.6,133.8
						c-3.1,0-3-1.8-2.1-3.9c3.7-8.2,8.9-15.2,17.9-20.4c-1.6,8.9-3.3,16.6,3.2,24.3H43.6z M133.4,132.9c-3.5,3.1-11.6,0.9-17.6,1
						c-14.3,0.1-28.5,0-43.8,0c5.4-5.9,6.2-12.2,4.8-18.7c-2.1-9.8,1.1-17.4,8.8-23.4c2.2-1.7,4.3-3.6,6.6-5.3
						c4.9-3.9,6.9-8.8,4.2-16.4c6.2,4,8.6,8.3,8.8,13.9c0.2,4.6-0.7,9-1.4,13.5c-0.6,4-1.1,8.2,0.8,12.1c2.5,5.4,6.2,8.8,12.5,8.4
						c6.1-0.4,9.2-4.3,10.9-9.6c0.8-2.6,1.1-5.5,1.7-8.7c5.6,4.4,5.5,9.8,5.1,15.2C134.4,121,137.5,129.3,133.4,132.9z"/>
					<path class="st3" d="M259.7,132.8c-3.9-55.4-50.4-102.1-105.9-106.5c-5.5-0.4-7.5,0.2-7.3,6.4c0.5,16.7,0.2,33.4,0.2,50.1
						s0.2,33.4-0.1,50.1c-0.1,4.9,1,6.7,6.3,6.6c33.6-0.3,67.2-0.3,100.8,0C259.3,139.5,260,137.6,259.7,132.8z M251.1,133.8
						c-1.3-0.1-2.6,0-3.9,0c-29.9,0-59.8-0.1-89.7,0.1c-4.5,0-6.1-1.1-5.8-5.7c0.4-6.9,0.1-13.8,0.1-23.4c4.5,8.7,7,5.6,10.1,1.4
						c9.1-12.4,18.5-24.5,28.1-37.1c8.3,9.7,16.4,18.9,24.1,28.5c2.8,3.4,4.9,4.8,7.2,0c3-6.2,6.7-5.9,11.2-1.6
						c1.2,1.2,2.7,2.3,4.2,3c14.4,5.7,15.8,18.6,17.3,31.3C254.4,132.8,253.6,133.9,251.1,133.8z"/>
					<path class="st1" d="M254.4,145.3c-34.1,0.3-68.1,0.2-102.2,0.1c-4.6,0-5.9,1.4-5.8,5.9c0.2,17.1,0.1,34.3,0.1,51.4
						c0,16.9,0.2,33.8-0.1,50.7c-0.1,4.7,1.3,5.7,5.8,5.2c6.5-0.6,12.9-1.4,19.2-3c48.2-12.1,83.4-52.3,88.3-103.6
						C260.1,148.2,260.3,145.2,254.4,145.3z M240.1,197.7c-18.8,31.5-46.5,49.7-82.7,55.3c-4.6,0.7-6-0.9-5.8-5.5
						c0.4-8.9-0.3-17.9,1.4-26.6c9.5,3.4,14.4,3,16.3-1.9c2.1-5.3-0.1-9.2-6.3-11.9c4.9-1.6,8,0.4,11.2,1.7c3,1.2,5.8,2.9,8.8,4
						c8.4,3.1,15.2,1.4,19.9-4.6c4.3-5.6,4.7-16,0.9-22.1c-4.7-7.4-13.7-10.8-21.9-8.7c-5.2,1.3-6.7,5.5-8.7,9.8
						c-5.6-18.2,7.4-32.7,26.2-29.9c13.8,2.1,23.7,9.9,31.8,20.6c3.3,4.3,5.9,9.1,9,13.4C241.9,193.6,241.4,195.4,240.1,197.7z"/>
					<path class="st4" d="M140,202.6c0-17.1-0.2-34.2,0.1-51.3c0.1-5-1.5-6.1-6.2-6c-33.4,0.2-66.7,0.3-100.1-0.1
						c-6.3-0.1-7.5,1.9-6.9,7.6c5.6,57,49.9,100.7,107,105.8c5.7,0.5,6.3-1.3,6.2-6.1C139.9,236,140,219.3,140,202.6z M129.9,253
						c-43.3-6.8-73.8-30-90.6-70.8c-1.7-4-0.6-4.7,3.2-4.9c8.2-0.5,16.5-0.9,24.6-2.3c7.6-1.2,8.4,5.5,11.9,9c3.1,3.1-0.6,5.3-2.2,7
						c-3.8,4-3.7,7.2,0.5,10.8c5.2,4.4,7.3,9.9,4.7,16.7c-0.8,1.9-0.3,3.8,1.3,5.4c4.1,3.8,8.1,7.7,13.2,12.5
						c-3.2-7.3-2.2-12.8,2.6-17.9c2.1-2.2-0.5-4.9-1.6-7.1c-1.9-3.4-2.6-6.3,1.2-8.9c3.8-2.5,1.8-5.7,0.8-8.7
						c-1.6-4.4,2.1-17.4,5.9-19.8c1-0.6,2.5-0.6,3.7-0.6c7.2-0.1,14.3,0.2,21.5-0.1c3.5-0.1,4.3,1.1,4.3,4.4
						c-0.1,23.6-0.2,47.3,0,70.9C134.9,252.8,133.4,253.5,129.9,253z"/>
					<path class="st5" d="M129.6,99.6c5.6,4.4,5.5,9.8,5.1,15.2c-0.4,6.2,2.8,14.5-1.3,18c-3.5,3.1-11.6,0.9-17.6,1
						c-14.3,0.1-28.5,0-43.8,0c5.4-5.9,6.2-12.2,4.8-18.7c-2.1-9.8,1.1-17.4,8.8-23.4c2.2-1.7,4.3-3.6,6.5-5.3
						C97,82.5,99,77.6,96.3,70c6.2,4,8.6,8.3,8.8,13.9c0.2,4.6-0.7,9-1.4,13.5c-0.6,4-1.1,8.2,0.8,12.1c2.4,5.4,6.2,8.8,12.5,8.4
						c6.1-0.4,9.2-4.3,10.9-9.6C128.8,105.7,129,102.8,129.6,99.6z"/>
					<path class="st5" d="M59.5,109.5c-1.6,8.9-3.3,16.7,3.2,24.3c-7.1,0-13.1,0-19,0c-3.1,0-3-1.8-2.1-3.9
						C45.3,121.7,50.4,114.7,59.5,109.5z"/>
					<path class="st5" d="M151.7,104.8c4.5,8.7,7,5.6,10.1,1.4c9.1-12.4,18.5-24.5,28.1-37.1c8.3,9.7,16.4,18.9,24.1,28.5
						c2.8,3.4,4.9,4.8,7.2,0c3-6.2,6.7-5.9,11.2-1.6c1.2,1.2,2.7,2.3,4.2,3c14.4,5.7,15.8,18.6,17.3,31.3c0.3,2.6-0.5,3.7-3.1,3.6
						c-1.3-0.1-2.6,0-3.9,0c-29.9,0-59.8-0.1-89.7,0.1c-4.5,0-6.1-1.1-5.8-5.7C152,121.3,151.7,114.4,151.7,104.8z"/>
					<path class="st5" d="M173.2,187.1c-5.6-18.2,7.4-32.7,26.2-29.9c13.8,2.1,23.7,9.9,31.8,20.6c3.3,4.3,5.9,9.1,9,13.4
						c1.7,2.4,1.2,4.3-0.1,6.5c-18.8,31.5-46.5,49.7-82.7,55.3c-4.6,0.7-6-0.9-5.8-5.5c0.4-8.9-0.3-17.8,1.4-26.6
						c9.5,3.4,14.4,3,16.3-1.9c2.1-5.3-0.1-9.2-6.3-11.9c4.9-1.6,8,0.4,11.2,1.7c3,1.2,5.8,2.9,8.8,4c8.4,3.1,15.2,1.4,19.9-4.6
						c4.3-5.6,4.7-16,0.9-22.1c-4.7-7.4-13.7-10.8-21.9-8.7C176.7,178.6,175.1,182.7,173.2,187.1z"/>
					<path class="st5" d="M96.5,236.4c-3.2-7.3-2.2-12.8,2.6-17.9c2.1-2.2-0.5-4.9-1.6-7.1c-1.9-3.4-2.6-6.3,1.2-8.9
						c3.8-2.5,1.8-5.7,0.8-8.7c-1.6-4.4,2.1-17.4,5.9-19.8c1-0.6,2.5-0.6,3.8-0.6c7.2-0.1,14.3,0.2,21.5-0.1
						c3.5-0.1,4.3,1.1,4.3,4.4c-0.1,23.6-0.2,47.3,0,70.9c0,4-1.5,4.8-4.9,4.2c-43.3-6.8-73.8-30-90.6-70.8c-1.7-4-0.6-4.6,3.2-4.9
						c8.2-0.5,16.5-0.9,24.6-2.3c7.6-1.2,8.4,5.5,11.9,9c3.1,3.1-0.6,5.3-2.2,7c-3.8,4-3.7,7.2,0.5,10.8c5.2,4.4,7.3,9.9,4.7,16.7
						c-0.8,1.9-0.3,3.8,1.3,5.4C87.3,227.8,91.4,231.6,96.5,236.4z"/>
				</g>
			</g>
		</g>
		<g id="Layer_4">
			<g>
				<path d="M368.2,103.5c0,5.8-0.9,10.8-2.6,15.1s-4.1,7.9-7.3,10.7c-3.1,2.8-7,4.9-11.5,6.4c-4.5,1.4-9.6,2.1-15.2,2.1
					c-2.6,0-5.5-0.1-9-0.3s-6.8-0.7-10.1-1.4V71c3.3-0.6,6.7-1.1,10.3-1.3c3.6-0.2,6.6-0.3,9.2-0.3c5.4,0,10.4,0.6,14.8,1.9
					s8.2,3.3,11.4,6.1c3.2,2.8,5.6,6.3,7.3,10.6C367.4,92.3,368.2,97.4,368.2,103.5z M327,124.6c0.7,0.1,1.5,0.1,2.3,0.1
					c0.9,0,1.9,0.1,3.1,0.1c7.1,0,12.4-1.9,15.9-5.7c3.4-3.8,5.2-9,5.2-15.7c0-7-1.6-12.3-4.9-15.9s-8.5-5.4-15.6-5.4
					c-1,0-2,0-3,0.1c-1,0-2,0.1-2.9,0.2L327,124.6L327,124.6z"/>
				<path d="M380.1,70.2h14.3v66.7h-14.3V70.2z"/>
				<path d="M426.3,125.4c2,0,3.7-0.2,5-0.5s2.4-0.8,3.1-1.4s1.3-1.3,1.6-2.2c0.3-0.8,0.5-1.8,0.5-2.8c0-2.2-1-4-2.9-5.4
					c-2-1.4-5.3-3-10.1-4.7c-2.1-0.8-4.1-1.7-6.2-2.7s-3.9-2.2-5.6-3.8c-1.6-1.5-3-3.3-4-5.5s-1.5-4.8-1.5-7.8s0.5-5.8,1.6-8.3
					s2.6-4.6,4.7-6.3s4.5-3.1,7.3-4s6.1-1.4,9.7-1.4c4.3,0,8,0.5,11.1,1.4s5.7,2,7.7,3.2L444.2,85c-1.8-1-3.7-1.8-5.9-2.6
					c-2.2-0.7-4.8-1.1-7.8-1.1c-3.4,0-5.9,0.5-7.4,1.5s-2.2,2.5-2.2,4.6c0,1.2,0.3,2.2,0.8,3.1c0.5,0.8,1.3,1.6,2.3,2.3
					c1,0.7,2.2,1.3,3.5,1.8s2.8,1.1,4.3,1.7c3.3,1.3,6.2,2.6,8.6,3.8c2.4,1.2,4.5,2.7,6.1,4.4c1.6,1.7,2.8,3.6,3.6,5.9
					c0.8,2.2,1.2,5,1.2,8.2c0,6.2-2.1,11-6.2,14.5c-4.1,3.4-10.4,5.1-18.7,5.1c-2.8,0-5.3-0.2-7.6-0.5s-4.2-0.8-6-1.3
					c-1.7-0.5-3.2-1.1-4.5-1.6s-2.3-1.1-3.1-1.6l4-11.9c1.9,1.1,4.2,2.1,7,2.9C418.9,125,422.3,125.4,426.3,125.4z"/>
				<path d="M504.7,136.9c-0.7-2.3-1.5-4.7-2.3-7.1s-1.6-4.9-2.4-7.3h-24.8c-0.8,2.4-1.6,4.9-2.4,7.3c-0.8,2.4-1.5,4.8-2.2,7.1
					h-14.8c2.4-7.2,4.6-13.8,6.8-19.9c2.1-6.1,4.2-11.8,6.3-17.2s4.1-10.5,6-15.3c2-4.8,4-9.6,6.2-14.2h13.5
					c2.1,4.6,4.1,9.3,6.1,14.2s4.1,10,6.1,15.3s4.1,11.1,6.3,17.2c2.2,6.1,4.4,12.7,6.8,19.9L504.7,136.9L504.7,136.9z M487.6,85.3
					c-0.3,1-0.8,2.3-1.4,3.9c-0.6,1.7-1.3,3.6-2.1,5.8s-1.7,4.6-2.6,7.2c-1,2.6-2,5.4-3,8.3h18.1c-1-2.9-1.9-5.7-2.8-8.3
					s-1.8-5.1-2.6-7.2c-0.8-2.2-1.5-4.1-2.1-5.8S488,86.2,487.6,85.3z"/>
				<path d="M547.2,125.4c2,0,3.7-0.2,5-0.5s2.4-0.8,3.2-1.4s1.3-1.3,1.7-2.2c0.3-0.8,0.5-1.8,0.5-2.8c0-2.2-1-4-2.9-5.4
					c-2-1.4-5.3-3-10.1-4.7c-2.1-0.8-4.2-1.7-6.2-2.7c-2.1-1-3.9-2.2-5.6-3.8c-1.7-1.5-3-3.3-4-5.5s-1.5-4.8-1.5-7.8
					s0.5-5.8,1.7-8.3c1.1-2.5,2.7-4.6,4.7-6.3c2-1.7,4.5-3.1,7.3-4s6.1-1.4,9.7-1.4c4.3,0,8,0.5,11.1,1.4c3.1,1,5.7,2,7.7,3.2
					L565,85.1c-1.8-1-3.7-1.8-5.9-2.6c-2.2-0.7-4.8-1.1-7.8-1.1c-3.4,0-5.9,0.5-7.4,1.5s-2.2,2.5-2.2,4.6c0,1.2,0.3,2.2,0.8,3.1
					s1.3,1.6,2.3,2.3s2.2,1.3,3.5,1.8s2.8,1.1,4.3,1.7c3.3,1.3,6.2,2.6,8.6,3.8c2.4,1.2,4.5,2.7,6.1,4.4c1.6,1.7,2.8,3.6,3.6,5.9
					c0.8,2.2,1.2,5,1.2,8.2c0,6.2-2.1,11-6.2,14.5c-4.2,3.4-10.4,5.1-18.7,5.1c-2.8,0-5.3-0.2-7.6-0.5s-4.2-0.8-6-1.3
					c-1.7-0.5-3.2-1.1-4.5-1.6s-2.3-1.1-3.2-1.6l4-11.9c1.9,1.1,4.2,2.1,7,2.9C539.8,125,543.1,125.4,547.2,125.4z"/>
				<path d="M628.3,70.2V83h-19.1v53.9h-14.3V83h-19.1V70.2C575.8,70.2,628.3,70.2,628.3,70.2z"/>
				<path d="M637.4,136.9V70.2h42.8v12.6h-28.5v13.1H677v12.3h-25.3v16.1h30.6v12.6H637.4z"/>
				<path d="M711.4,69.4c9.5,0,16.8,1.8,21.8,5.3s7.6,9.1,7.6,16.6c0,4.7-1,8.5-3.1,11.4s-5,5.2-8.8,6.9c1.3,1.7,2.6,3.6,4,5.7
					s2.8,4.4,4.2,6.7s2.7,4.8,4,7.3s2.5,5,3.6,7.5h-16c-1.2-2.2-2.3-4.4-3.5-6.6s-2.4-4.4-3.7-6.5c-1.2-2.1-2.5-4.1-3.7-6
					s-2.5-3.6-3.7-5.2h-7v24.3h-14.3V71.1c3.1-0.6,6.3-1.1,9.7-1.3C705.8,69.5,708.8,69.4,711.4,69.4z M712.2,82.2c-1,0-2,0-2.8,0.1
					s-1.6,0.1-2.3,0.2v18.1h4c5.4,0,9.2-0.7,11.5-2.1s3.5-3.8,3.5-7.2c0-3.3-1.2-5.6-3.5-7C720.2,82.9,716.8,82.2,712.2,82.2z"/>
			</g>
		</g>
	</g>
</g>
<g id="Layer_2">
	<g id="Layer_2_1_">
		<g class="st6">
			<path d="M311.4,220v-51.5h17.8c4,0,7.1,0.2,9.2,0.7c3,0.7,5.5,1.9,7.6,3.7c2.7,2.3,4.8,5.2,6.1,8.8c1.3,3.6,2,7.7,2,12.3
				c0,3.9-0.5,7.4-1.4,10.4s-2.1,5.5-3.5,7.5c-1.4,2-3,3.5-4.7,4.7c-1.7,1.1-3.8,2-6.2,2.6c-2.4,0.6-5.2,0.9-8.3,0.9H311.4z
				 M318.2,213.9h11c3.4,0,6.1-0.3,8-0.9s3.5-1.5,4.6-2.7c1.6-1.6,2.9-3.8,3.8-6.5c0.9-2.7,1.4-6,1.4-9.9c0-5.4-0.9-9.5-2.7-12.4
				c-1.8-2.9-3.9-4.8-6.5-5.8c-1.8-0.7-4.8-1.1-8.8-1.1h-10.8V213.9z"/>
			<path d="M357.8,220l19.8-51.5h7.3L406,220h-7.8l-6-15.6h-21.6L365,220H357.8z M372.6,198.8h17.5l-5.4-14.3
				c-1.6-4.3-2.9-7.9-3.7-10.7c-0.7,3.3-1.6,6.6-2.8,9.8L372.6,198.8z"/>
			<path d="M411.2,220v-51.5h10.3l12.2,36.5c1.1,3.4,1.9,5.9,2.5,7.6c0.6-1.9,1.5-4.6,2.7-8.3l12.3-35.9h9.2V220h-6.6v-43.1
				l-15,43.1h-6.2l-14.9-43.9V220H411.2z"/>
			<path d="M465.8,220l19.8-51.5h7.3L514,220h-7.8l-6-15.6h-21.6L473,220H465.8z M480.6,198.8h17.5l-5.4-14.3
				c-1.6-4.3-2.9-7.9-3.7-10.7c-0.7,3.3-1.6,6.6-2.8,9.8L480.6,198.8z"/>
			<path d="M543.6,199.8v-6l21.8,0v19.1c-3.4,2.7-6.8,4.7-10.4,6c-3.6,1.3-7.2,2-11,2c-5.1,0-9.7-1.1-13.8-3.3
				c-4.1-2.2-7.3-5.3-9.4-9.4s-3.2-8.7-3.2-13.7c0-5,1-9.7,3.1-14c2.1-4.3,5.1-7.6,9.1-9.7s8.5-3.2,13.6-3.2c3.7,0,7.1,0.6,10.1,1.8
				c3,1.2,5.4,2.9,7.1,5c1.7,2.2,3,5,3.9,8.4l-6.2,1.7c-0.8-2.6-1.7-4.7-2.9-6.2c-1.1-1.5-2.8-2.7-4.9-3.6c-2.1-0.9-4.5-1.4-7.1-1.4
				c-3.1,0-5.8,0.5-8.1,1.4c-2.3,0.9-4.1,2.2-5.5,3.7c-1.4,1.5-2.5,3.2-3.3,5.1c-1.3,3.2-2,6.6-2,10.4c0,4.6,0.8,8.4,2.4,11.5
				s3.9,5.4,6.9,6.9s6.2,2.2,9.6,2.2c3,0,5.8-0.6,8.6-1.7s4.9-2.3,6.4-3.6v-9.6H543.6z"/>
			<path d="M575.6,220v-51.5h37.3v6.1h-30.4v15.8h28.5v6h-28.5v17.5H614v6.1H575.6z"/>
			<path d="M680.2,201.9l6.8,1.7c-1.4,5.6-4,9.9-7.7,12.8c-3.7,2.9-8.3,4.4-13.6,4.4c-5.6,0-10.1-1.1-13.6-3.4s-6.1-5.5-7.9-9.8
				c-1.8-4.3-2.7-8.9-2.7-13.8c0-5.4,1-10,3.1-14c2.1-4,5-7,8.8-9.1c3.8-2.1,8-3.1,12.5-3.1c5.2,0,9.5,1.3,13,3.9s6,6.3,7.3,11.1
				l-6.7,1.6c-1.2-3.8-2.9-6.5-5.2-8.2c-2.3-1.7-5.1-2.6-8.6-2.6c-4,0-7.3,0.9-9.9,2.8c-2.7,1.9-4.5,4.4-5.6,7.6
				c-1.1,3.2-1.6,6.5-1.6,9.9c0,4.4,0.6,8.2,1.9,11.5c1.3,3.3,3.3,5.7,6,7.3c2.7,1.6,5.6,2.4,8.8,2.4c3.8,0,7.1-1.1,9.7-3.3
				C677.5,209.5,679.3,206.3,680.2,201.9z"/>
			<path d="M693.4,194.9c0-8.6,2.3-15.3,6.9-20.1c4.6-4.8,10.5-7.3,17.8-7.3c4.8,0,9,1.1,12.9,3.4c3.8,2.3,6.7,5.4,8.7,9.5
				s3,8.7,3,13.8c0,5.2-1.1,9.9-3.2,14s-5.1,7.2-9,9.4s-8,3.2-12.5,3.2c-4.9,0-9.2-1.2-13-3.5c-3.8-2.3-6.7-5.5-8.7-9.6
				S693.4,199.4,693.4,194.9z M700.4,195c0,6.2,1.7,11.1,5,14.7S713,215,718,215c5.1,0,9.4-1.8,12.7-5.4c3.3-3.6,5-8.7,5-15.4
				c0-4.2-0.7-7.9-2.1-11c-1.4-3.1-3.5-5.6-6.2-7.3c-2.7-1.7-5.8-2.6-9.2-2.6c-4.8,0-9,1.7-12.5,5S700.4,187.2,700.4,195z"/>
			<path d="M751.4,220v-51.5h7l27.1,40.5v-40.5h6.5V220h-7l-27.1-40.5V220H751.4z"/>
			<path d="M816.6,220v-45.5h-17v-6.1h40.9v6.1h-17.1V220H816.6z"/>
			<path d="M847.6,220v-51.5h22.9c4.6,0,8.1,0.5,10.5,1.4s4.3,2.6,5.7,4.9s2.1,4.9,2.1,7.8c0,3.7-1.2,6.7-3.6,9.2s-6,4.1-11,4.8
				c1.8,0.9,3.2,1.7,4.1,2.6c2,1.8,3.9,4.1,5.7,6.9l9,14h-8.6l-6.8-10.7c-2-3.1-3.6-5.5-4.9-7.1s-2.4-2.8-3.5-3.4s-2.1-1.1-3.1-1.4
				c-0.8-0.2-2-0.2-3.8-0.2h-7.9V220H847.6z M854.4,191.2H869c3.1,0,5.6-0.3,7.3-1s3.1-1.7,4-3.1s1.4-3,1.4-4.6c0-2.4-0.9-4.4-2.7-6
				s-4.6-2.4-8.4-2.4h-16.3V191.2z"/>
			<path d="M897.4,194.9c0-8.6,2.3-15.3,6.9-20.1s10.5-7.3,17.8-7.3c4.8,0,9,1.1,12.9,3.4s6.7,5.4,8.7,9.5s3,8.7,3,13.8
				c0,5.2-1.1,9.9-3.2,14s-5.1,7.2-9,9.4s-8,3.2-12.5,3.2c-4.9,0-9.2-1.2-13-3.5s-6.7-5.5-8.7-9.6S897.4,199.4,897.4,194.9z
				 M904.4,195c0,6.2,1.7,11.1,5,14.7s7.5,5.4,12.6,5.4c5.1,0,9.4-1.8,12.7-5.4s5-8.7,5-15.4c0-4.2-0.7-7.9-2.1-11s-3.5-5.6-6.2-7.3
				s-5.8-2.6-9.2-2.6c-4.8,0-9,1.7-12.5,5S904.4,187.2,904.4,195z"/>
			<path d="M955.2,220v-51.5h6.8v45.5h25.4v6.1H955.2z"/>
		</g>
	</g>
</g>
</svg>
